<svg xmlns="http://www.w3.org/2000/svg" width="620" height="220" aria-label="chonk" viewBox="0 0 620 220"><style>.fur{fill:#f2a541}.cream{fill:#fce3bf}.ink{stroke:#2a2521;fill:none;stroke-linecap:round;stroke-linejoin:round}.pink{fill:#e8877a}</style><ellipse cx="150" cy="206" rx="92" ry="8" style="fill:#1f2328;opacity:.12"/><path fill="none" stroke="#e6923a" stroke-linecap="round" stroke-width="18" d="M220 182c52 4 66-50 32-66"/><ellipse cx="150" cy="150" class="fur" rx="90" ry="56"/><ellipse cx="150" cy="163" class="cream" rx="50" ry="36"/><ellipse cx="126" cy="200" class="cream" rx="17" ry="9"/><ellipse cx="174" cy="200" class="cream" rx="17" ry="9"/><path stroke="#f2a541" stroke-linejoin="round" stroke-width="8" d="m108 76 5-40 29 20ZM192 76l-5-40-29 20Z" class="fur"/><path d="m117 62 3-16 13 9ZM183 62l-3-16-13 9Z" class="pink" opacity=".7"/><circle cx="150" cy="96" r="50" class="fur"/><g stroke-linecap="round" stroke-width="4.5" style="stroke:#d9822b"><path d="m139 58 1 10M150 55v13M161 58l-1 10"/></g><circle cx="121" cy="110" r="7" class="pink" opacity=".35"/><circle cx="179" cy="110" r="7" class="pink" opacity=".35"/><path stroke-width="4" d="M125 92q8 7 16 0M159 92q8 7 16 0" class="ink"/><path d="M145 101h10l-5 5.5z" class="pink"/><path stroke-width="3" d="M150 106.5q-4 6-10 3m10-3q4 6 10 3" class="ink"/><g stroke-width="2.5" class="ink" opacity=".55"><path d="m116 104-28-5M116 111l-26 4M184 104l28-5M184 111l26 4"/></g><text x="286" y="142" font-family="ui-rounded, 'SF Pro Rounded', 'Nunito', 'Arial Rounded MT Bold', system-ui, -apple-system, 'Segoe UI', Helvetica, Arial, sans-serif" font-size="88" font-weight="900" lengthAdjust="spacingAndGlyphs" style="fill:#1f2328" textLength="286">chonk</text></svg>